# xmcd
#
# Track frame offsets: 
#        150
#        53937
#        110596
#        137662
#        193024
#        226826
#
# Disc length: 3601 seconds
#
# Revision: 11
# Processed by: cddbd v1.5.2PL0 Copyright (c) Steve Scherf et al.
# Submitted via: ExactAudioCopy v0.99pb4
#
DISCID=4e0e0f06
DTITLE=David Oistrakh - David Oistrakh - The Complete EMI Recordings [
DTITLE=Disc 17]
DYEAR=2008
DGENRE=Chamber Music
TTITLE0=Schubert: Octet in F major, D803 (rec.1955) - 1. Adagio - Alle
TTITLE0=gro
TTITLE1=Schubert: Octet in F major, D803 (rec.1955) - 2. Andante un po
TTITLE1=co mosso
TTITLE2=Schubert: Octet in F major, D803 (rec.1955) - 3. Scherzo. Alle
TTITLE2=gro vivace
TTITLE3=Schubert: Octet in F major, D803 (rec.1955) - 4. Andante - Var
TTITLE3=iations 1-7
TTITLE4=Schubert: Octet in F major, D803 (rec.1955) - 5. Minuet. Alleg
TTITLE4=retto
TTITLE5=Schubert: Octet in F major, D803 (rec.1955) - 6. Andante molto
TTITLE5=Allegro - Andante moto - Allegro molto
EXTD=
EXTT0=
EXTT1=
EXTT2=
EXTT3=
EXTT4=
EXTT5=
PLAYORDER=
